<svg xmlns="http://www.w3.org/2000/svg" width="432" height="432" viewBox="0 0 108 108" shape-rendering="crispEdges">
  <path d="M32 28L36 22L43 19L49 19L54 24L59 19L65 19L72 22L76 28L76 36L72 43L66 49L60 55L54 61L48 55L42 49L36 43L32 36Z" fill="#3a251b"/>
  <path d="M35 29L39 24L44 22L49 22L54 28L59 22L64 22L69 24L73 29L73 35L69 41L63 47L58 52L54 56L50 52L45 47L39 41L35 35Z" fill="#b8543f"/>
  <rect x="41" y="25" width="6" height="3" fill="#d36f55"/><rect x="61" y="25" width="6" height="3" fill="#d36f55"/>
  <path d="M54 33L61 40L54 47L47 40Z" fill="#d5a948" stroke="#3a251b" stroke-width="2"/>
  <g fill="#3a251b">
    <rect x="18" y="68" width="3" height="21"/><rect x="21" y="68" width="11" height="3"/><rect x="21" y="77" width="9" height="3"/><rect x="21" y="86" width="11" height="3"/>
    <rect x="37" y="68" width="3" height="21"/><rect x="40" y="68" width="9" height="3"/><rect x="40" y="77" width="9" height="3"/><rect x="40" y="86" width="9" height="3"/><rect x="49" y="71" width="3" height="6"/><rect x="49" y="80" width="3" height="6"/>
    <rect x="57" y="68" width="3" height="21"/><rect x="60" y="68" width="11" height="3"/><rect x="60" y="77" width="9" height="3"/>
    <rect x="76" y="68" width="3" height="21"/><rect x="79" y="86" width="11" height="3"/>
  </g>
</svg>
